<svg width="46" height="28" viewBox="0 0 46 28" fill="none" xmlns="http://www.w3.org/2000/svg">
<g clip-path="url(#clip0_1_515)">
<path d="M1.78078e-05 2.01874C0.0457433 1.93268 0.1029 1.84662 0.148626 1.751C0.502999 0.986037 1.17745 0.574869 2.14912 0.507935C2.30916 0.507935 2.48063 0.507935 2.64067 0.507935C16.2097 0.507935 29.7788 0.507935 43.3478 0.507935C43.6336 0.507935 43.9194 0.507935 44.1937 0.555745C45.2797 0.756548 45.9542 1.48326 45.9656 2.45859C45.977 3.62517 45.9656 4.78217 45.9656 5.94875C45.9656 8.96079 45.9656 11.9824 45.9656 14.9945C45.9656 16.4001 45.074 17.1555 43.3935 17.1555C29.7788 17.1555 16.164 17.1555 2.54922 17.1555C1.22318 17.1555 0.377253 16.6391 -0.0114136 15.5969C1.78078e-05 11.0836 1.78078e-05 6.55116 1.78078e-05 2.01874ZM23.0228 1.78925C16.2326 1.78925 9.43091 1.78925 2.64067 1.78925C1.74902 1.78925 1.52039 1.98049 1.52039 2.71677C1.52039 6.79977 1.52039 10.8828 1.52039 14.9562C1.52039 15.702 1.72616 15.8837 2.64067 15.8837C16.1983 15.8837 29.7559 15.8837 43.3135 15.8837C44.2395 15.8837 44.4452 15.7116 44.4452 14.9275C44.4452 10.8541 44.4452 6.79021 44.4452 2.71677C44.4452 1.93268 44.2509 1.77013 43.3135 1.77013C36.5576 1.78925 29.7902 1.78925 23.0228 1.78925Z" fill="#BDBDBD"/>
<path d="M23.0342 13.3211C29.2415 13.3211 35.4487 13.3211 41.6674 13.3211C41.8731 13.3211 42.0903 13.3307 42.2961 13.3498C42.7076 13.388 42.8791 13.6271 42.9134 13.9426C42.9477 14.2677 42.6848 14.5163 42.2961 14.5737C42.1246 14.6024 41.9417 14.6024 41.7588 14.6024C29.2529 14.6024 16.7355 14.6024 4.22961 14.6024C3.41799 14.6024 3.08648 14.4207 3.07504 13.9809C3.06361 13.5219 3.40655 13.3211 4.22961 13.3211C10.494 13.3211 16.7698 13.3211 23.0342 13.3211Z" fill="#BDBDBD"/>
<path d="M22.9885 12.0398C16.7584 12.0398 10.5397 12.0398 4.30962 12.0398C4.10386 12.0398 3.88667 12.0398 3.6809 12.0207C3.26937 11.9824 3.07504 11.7434 3.07504 11.4278C3.06361 11.1123 3.23508 10.8636 3.64661 10.8063C3.81808 10.7776 4.00098 10.768 4.18388 10.768C16.7241 10.768 29.2643 10.768 41.8046 10.768C41.8617 10.768 41.9189 10.768 41.9875 10.768C42.6048 10.7871 42.9363 11.0166 42.9134 11.4278C42.902 11.8294 42.5933 12.0398 41.9875 12.0398C39.0953 12.0398 36.2146 12.0398 33.3225 12.0398C29.8702 12.0398 26.4294 12.0398 22.9885 12.0398Z" fill="#BDBDBD"/>
<path d="M-98.8506 412.976C-98.8506 407.666 -93.7044 403.362 -87.3563 403.362H73.5632C79.9113 403.362 85.0575 407.666 85.0575 412.976V523.545C85.0575 528.855 79.9113 533.16 73.5632 533.16H-87.3563C-93.7044 533.16 -98.8506 528.855 -98.8506 523.545V412.976Z" fill="#BDBDBD"/>
<path d="M-77.0115 437.562C-76.9658 437.476 -76.9087 437.39 -76.8629 437.295C-76.5086 436.53 -75.8341 436.118 -74.8624 436.052C-74.7024 436.052 -74.5309 436.052 -74.3709 436.052C-60.8018 436.052 -47.2328 436.052 -33.6637 436.052C-33.378 436.052 -33.0922 436.052 -32.8178 436.099C-31.7318 436.3 -31.0574 437.027 -31.046 438.002C-31.0345 439.169 -31.046 440.326 -31.046 441.492C-31.046 444.504 -31.046 447.526 -31.046 450.538C-31.046 451.944 -31.9376 452.699 -33.618 452.699C-47.2328 452.699 -60.8476 452.699 -74.4624 452.699C-75.7884 452.699 -76.6343 452.183 -77.023 451.14C-77.0115 446.627 -77.0115 442.095 -77.0115 437.562ZM-53.9887 437.333C-60.779 437.333 -67.5807 437.333 -74.3709 437.333C-75.2625 437.333 -75.4912 437.524 -75.4912 438.26C-75.4912 442.343 -75.4912 446.426 -75.4912 450.5C-75.4912 451.246 -75.2854 451.427 -74.3709 451.427C-60.8133 451.427 -47.2557 451.427 -33.698 451.427C-32.7721 451.427 -32.5663 451.255 -32.5663 450.471C-32.5663 446.398 -32.5663 442.334 -32.5663 438.26C-32.5663 437.476 -32.7607 437.314 -33.698 437.314C-40.454 437.333 -47.2214 437.333 -53.9887 437.333Z" fill="#BDBDBD"/>
<path d="M-51.7251 459.364C-51.7366 459.928 -51.9195 460.387 -52.331 460.731C-52.7082 461.047 -53.1312 461.334 -53.5656 461.582C-53.9543 461.802 -54.4915 461.668 -54.6973 461.353C-54.9145 461.037 -54.7887 460.76 -54.3543 460.502C-54.1029 460.358 -53.8514 460.224 -53.6342 460.052C-53.1312 459.66 -53.1312 459.268 -53.6456 458.905C-54.08 458.599 -54.5944 458.379 -55.0174 458.063C-55.3946 457.786 -55.7604 457.471 -56.0119 457.117C-56.5034 456.409 -56.412 455.673 -55.7947 455.051C-55.4175 454.669 -54.9031 454.363 -54.4001 454.066C-54.0457 453.856 -53.6685 453.952 -53.4627 454.219C-53.2341 454.516 -53.3027 454.86 -53.6227 455.09C-53.8971 455.281 -54.1829 455.463 -54.4344 455.682C-54.8916 456.084 -54.8688 456.457 -54.3658 456.811C-54.0457 457.031 -53.6799 457.203 -53.3255 457.385C-52.4339 457.872 -51.7937 458.494 -51.7251 459.364Z" fill="#BDBDBD"/>
<path d="M-62.3908 462.969C-62.8252 462.94 -63.0767 462.806 -63.191 462.5C-63.3054 462.204 -63.1567 461.993 -62.871 461.831C-62.5966 461.678 -62.3223 461.525 -62.0708 461.343C-61.5678 460.961 -61.5564 460.569 -62.0822 460.196C-62.5395 459.88 -63.0653 459.632 -63.534 459.316C-64.2999 458.8 -64.8257 458.169 -64.7228 457.289C-64.6314 456.524 -63.5225 455.453 -62.6423 455.281C-62.2765 455.204 -62.0022 455.319 -61.8421 455.616C-61.6821 455.893 -61.7164 456.141 -62.025 456.352C-62.3451 456.572 -62.6766 456.792 -62.9624 457.05C-63.3282 457.394 -63.3168 457.729 -62.9053 458.035C-62.5966 458.264 -62.2079 458.417 -61.8879 458.637C-61.4192 458.962 -60.9162 459.268 -60.5733 459.679C-59.9903 460.368 -60.0017 461.142 -60.6304 461.812C-61.0191 462.223 -61.5678 462.529 -62.0593 462.873C-62.1394 462.95 -62.3108 462.95 -62.3908 462.969Z" fill="#BDBDBD"/>
<path d="M-45.5408 463.036C-45.9638 462.95 -46.2153 462.806 -46.341 462.51C-46.4553 462.213 -46.3182 462.003 -46.021 461.84C-45.7695 461.697 -45.518 461.573 -45.2893 461.401C-44.672 460.951 -44.672 460.569 -45.3122 460.129C-45.7123 459.851 -46.181 459.641 -46.5811 459.364C-46.8783 459.163 -47.1641 458.934 -47.3927 458.675C-48.0672 457.901 -48.0557 456.983 -47.3013 456.266C-46.9583 455.931 -46.5125 455.654 -46.0781 455.405C-45.6666 455.166 -45.2665 455.233 -45.0493 455.501C-44.8092 455.797 -44.9007 456.161 -45.2665 456.419C-45.5523 456.62 -45.8495 456.82 -46.0895 457.05C-46.4439 457.394 -46.4325 457.738 -46.0324 458.035C-45.7009 458.283 -45.3122 458.465 -44.9235 458.666C-44.1805 459.058 -43.5632 459.546 -43.3689 460.282C-43.1174 461.209 -43.6318 461.907 -44.4663 462.462C-44.7978 462.691 -45.1865 462.854 -45.5408 463.036Z" fill="#BDBDBD"/>
<path d="M-53.9772 448.865C-47.77 448.865 -41.5628 448.865 -35.3441 448.865C-35.1383 448.865 -34.9211 448.874 -34.7154 448.893C-34.3038 448.932 -34.1324 449.171 -34.0981 449.486C-34.0638 449.811 -34.3267 450.06 -34.7154 450.117C-34.8868 450.146 -35.0697 450.146 -35.2526 450.146C-47.7586 450.146 -60.2759 450.146 -72.7819 450.146C-73.5935 450.146 -73.925 449.964 -73.9364 449.524C-73.9479 449.066 -73.6049 448.865 -72.7819 448.865C-66.5175 448.865 -60.2416 448.865 -53.9772 448.865Z" fill="#BDBDBD"/>
<path d="M-54.023 447.583C-60.2531 447.583 -66.4718 447.583 -72.7019 447.583C-72.9076 447.583 -73.1248 447.583 -73.3306 447.564C-73.7421 447.526 -73.9365 447.287 -73.9365 446.971C-73.9479 446.656 -73.7764 446.407 -73.3649 446.35C-73.1934 446.321 -73.0105 446.312 -72.8276 446.312C-60.2874 446.312 -47.7472 446.312 -35.2069 446.312C-35.1498 446.312 -35.0926 446.312 -35.024 446.312C-34.4067 446.331 -34.0752 446.56 -34.0981 446.971C-34.1095 447.373 -34.4182 447.583 -35.024 447.583C-37.9162 447.583 -40.7969 447.583 -43.689 447.583C-47.1413 447.583 -50.5821 447.583 -54.023 447.583Z" fill="#BDBDBD"/>
<path d="M-54.0116 440.536C-53.0971 440.536 -52.194 440.536 -51.2795 440.536C-51.0966 440.536 -50.9137 440.536 -50.7422 440.574C-50.3878 440.641 -50.2164 440.861 -50.2049 441.148C-50.1935 441.445 -50.3307 441.693 -50.7079 441.779C-50.8451 441.808 -51.0051 441.827 -51.1537 441.827C-53.0628 441.827 -54.9718 441.837 -56.8809 441.817C-57.1438 441.817 -57.4981 441.741 -57.6353 441.598C-57.7839 441.435 -57.8411 441.11 -57.7496 440.919C-57.6696 440.747 -57.3267 440.584 -57.098 440.574C-56.0692 440.517 -55.0404 440.546 -54.0116 440.536Z" fill="#BDBDBD"/>
</g>
<defs>
<clipPath id="clip0_1_515">
<rect width="45.977" height="26.9841" fill="white" transform="translate(0 0.507935)"/>
</clipPath>
</defs>
</svg>
