<svg width="39" height="47" viewBox="0 0 39 47" fill="none" xmlns="http://www.w3.org/2000/svg">
<path d="M20.7684 0C21.2112 0.205615 21.3219 0.569395 21.3219 1.02807C21.3219 3.3531 21.3536 5.69395 21.3694 8.01898C21.3694 8.17715 21.3694 8.3195 21.3694 8.54093C21.6225 8.54093 21.8281 8.54093 22.0495 8.54093C23.0459 8.57256 23.6628 9.1894 23.6786 10.1858C23.6786 10.5971 23.6944 11.0241 23.6786 11.4354C23.6628 11.7675 23.7577 11.894 24.0898 11.9889C26.2883 12.4951 28.2812 13.4599 30.0052 14.915C32.6308 17.1293 34.418 19.8814 35.193 23.2503C35.4461 24.3416 35.5252 25.4804 35.6359 26.6034C35.6992 27.2835 35.3828 27.584 34.7027 27.584C32.2353 27.584 29.7522 27.584 27.2848 27.584C27.1424 27.584 27.0001 27.584 26.8261 27.584C26.5256 29.5295 25.6399 31.1111 23.9791 32.1866C22.7138 33.0249 21.3061 33.3412 19.8194 33.1989C17.3204 32.9458 14.679 31.2376 14.078 27.584C13.9356 27.584 13.7933 27.584 13.6351 27.584C11.1836 27.584 8.74781 27.584 6.29625 27.584C5.47379 27.584 5.25236 27.3151 5.26817 26.4927C5.33144 24.1677 5.83757 21.9533 6.91309 19.8814C8.39984 16.987 10.5667 14.7885 13.4453 13.2859C14.6316 12.669 15.8969 12.1945 17.2097 11.9098C17.4627 11.8466 17.5418 11.7359 17.5418 11.4828C17.526 11.0874 17.5418 10.6762 17.5418 10.2649C17.5576 9.14196 18.1586 8.52511 19.2816 8.52511C19.4556 8.52511 19.6138 8.52511 19.851 8.52511C19.851 8.35113 19.851 8.20878 19.851 8.06643C19.8352 5.70977 19.8194 3.3531 19.8036 0.996441C19.8036 0.537762 19.9301 0.189798 20.373 0C20.5153 0 20.6418 0 20.7684 0ZM34.1175 25.9866C33.8803 19.5176 28.3129 12.8747 19.9934 13.1435C12.3223 13.3966 7.03962 19.6916 6.86564 25.9866C15.9443 25.9866 25.0072 25.9866 34.1175 25.9866ZM25.3235 27.5998C22.1128 27.5998 18.9337 27.5998 15.7545 27.5998C15.9918 29.83 18.0637 31.6172 20.4362 31.6647C22.8245 31.7121 24.9914 29.9091 25.3235 27.5998ZM19.0127 11.5935C20.0724 11.5935 21.0847 11.5935 22.097 11.5935C22.097 11.0874 22.097 10.6129 22.097 10.1226C21.0531 10.1226 20.0408 10.1226 19.0127 10.1226C19.0127 10.6129 19.0127 11.0716 19.0127 11.5935Z" fill="#BDBDBD"/>
</svg>
