<svg width="38" height="47" viewBox="0 0 38 47" fill="none" xmlns="http://www.w3.org/2000/svg">
<path d="M20.5 0C20.9429 0.205615 21.0536 0.569395 21.0536 1.02807C21.0536 3.3531 21.0852 5.69395 21.101 8.01898C21.101 8.17715 21.101 8.3195 21.101 8.54093C21.3541 8.54093 21.5597 8.54093 21.7811 8.54093C22.7776 8.57256 23.3944 9.1894 23.4102 10.1858C23.4102 10.5971 23.4261 11.0241 23.4102 11.4354C23.3944 11.7675 23.4893 11.894 23.8215 11.9889C26.02 12.4951 28.0128 13.4599 29.7368 14.915C32.3624 17.1293 34.1497 19.8814 34.9247 23.2503C35.1777 24.3416 35.2568 25.4804 35.3675 26.6034C35.4308 27.2835 35.1145 27.584 34.4344 27.584C31.967 27.584 29.4838 27.584 27.0164 27.584C26.8741 27.584 26.7317 27.584 26.5577 27.584C26.2572 29.5295 25.3715 31.1111 23.7108 32.1866C22.4454 33.0249 21.0378 33.3412 19.551 33.1989C17.052 32.9458 14.4106 31.2376 13.8096 27.584C13.6673 27.584 13.5249 27.584 13.3667 27.584C10.9152 27.584 8.47944 27.584 6.02788 27.584C5.20542 27.584 4.98398 27.3151 4.9998 26.4927C5.06307 24.1677 5.5692 21.9533 6.64472 19.8814C8.13147 16.987 10.2983 14.7885 13.1769 13.2859C14.3632 12.669 15.6285 12.1945 16.9413 11.9098C17.1943 11.8466 17.2734 11.7359 17.2734 11.4828C17.2576 11.0874 17.2734 10.6762 17.2734 10.2649C17.2892 9.14195 17.8903 8.52511 19.0132 8.52511C19.1872 8.52511 19.3454 8.52511 19.5826 8.52511C19.5826 8.35113 19.5826 8.20878 19.5826 8.06643C19.5668 5.70977 19.551 3.3531 19.5352 0.996441C19.5352 0.537762 19.6617 0.189798 20.1046 0C20.2469 0 20.3735 0 20.5 0ZM33.8491 25.9866C33.6119 19.5176 28.0445 12.8747 19.725 13.1435C12.054 13.3966 6.77125 19.6916 6.59727 25.9866C15.676 25.9866 24.7388 25.9866 33.8491 25.9866ZM25.0552 27.5998C21.8444 27.5998 18.6653 27.5998 15.4862 27.5998C15.7234 29.83 17.7954 31.6172 20.1679 31.6647C22.5561 31.7121 24.723 29.9091 25.0552 27.5998ZM18.7444 11.5935C19.8041 11.5935 20.8163 11.5935 21.8286 11.5935C21.8286 11.0874 21.8286 10.6129 21.8286 10.1226C20.7847 10.1226 19.7724 10.1226 18.7444 10.1226C18.7444 10.6129 18.7444 11.0716 18.7444 11.5935Z" fill="#BEDB0C"/>
</svg>
